C:\GBW_MyPrograms\KinderuniversiteitApp\Resultaten\Ellis\Olaf\Olaf_v5.mot
version=1
nRows=19
nColumns=29
inDegrees=yes
endheader
                time	         pelvis_tilt	           pelvis_tx	           pelvis_ty	       hip_flexion_l	       hip_flexion_r	        knee_angle_l	        knee_angle_r	       ankle_angle_l	       ankle_angle_r	    lumbar_extension	hamstrings_r/activation	bifemsh_r/activation	glut_max_r/activation	iliopsoas_r/activation	rect_fem_r/activation	  vasti_r/activation	gastroc_r/activation	 soleus_r/activation	tib_ant_r/activation	hamstrings_l/activation	bifemsh_l/activation	glut_max_l/activation	iliopsoas_l/activation	rect_fem_l/activation	  vasti_l/activation	gastroc_l/activation	 soleus_l/activation	tib_ant_l/activation	
          0.30000000	         -8.17439398	          0.39889195	          0.91260474	         18.76298342	         13.71302450	        -23.87832225	        -14.35716582	         13.62337318	         11.12832761	         -6.06433285	          0.45802366	          0.87405026	          0.44493541	          0.87444215	          0.32721217	          0.41181355	          0.96469360	          0.81666257	          0.17740713	          0.08890311	          0.20439422	          0.90806576	          0.21330090	          0.98296892	          0.96679681	          0.18868829	          0.15850087	          0.91404734	
          0.30200000	         -8.20319464	          0.39899712	          0.91260363	         18.74469185	         13.78907166	        -23.77408185	        -14.44706709	         13.66037213	         11.10238128	         -6.02922040	          0.44325947	          0.88886336	          0.43058295	          0.88921146	          0.31665758	          0.39852933	          0.94084092	          0.79031951	          0.17168494	          0.08603562	          0.19780108	          0.91888128	          0.20642033	          0.98497158	          0.97070296	          0.18260168	          0.15338833	          0.88456281	
          0.30400000	         -8.23624040	          0.39909962	          0.91259365	         18.72069233	         13.87845904	        -23.65155213	        -14.55409244	         13.69404691	         11.08373135	         -5.98891728	          0.42896561	          0.90193230	          0.41669347	          0.90224277	          0.30644348	          0.38567365	          0.91049529	          0.76482609	          0.16614737	          0.08326069	          0.19142062	          0.92842439	          0.19976171	          0.98673854	          0.97414956	          0.17671143	          0.14844091	          0.85602914	
          0.30600000	         -8.27305804	          0.39919963	          0.91257480	         18.69064036	         13.98051099	        -23.51114266	        -14.67795614	         13.72407213	         11.07272410	         -5.94400278	          0.41513091	          0.91346048	          0.40325204	          0.91374026	          0.29655888	          0.37323266	          0.88112640	          0.74015492	          0.16078845	          0.08057534	          0.18524598	          0.93684478	          0.19331789	          0.98829753	          0.97719068	          0.17101119	          0.14365361	          0.82841578	
          0.30800000	         -8.31297624	          0.39929738	          0.91254738	         18.65398865	         14.09429933	        -23.35331014	        -14.81829862	         13.75063270	         11.06960712	         -5.89529926	          0.40174164	          0.92361519	          0.39024421	          0.92388312	          0.28699317	          0.36119299	          0.85270419	          0.71627952	          0.15560243	          0.07797669	          0.17927053	          0.94427455	          0.18708193	          0.98967298	          0.97987401	          0.16549484	          0.13902651	          0.80169311	
          0.31000000	         -8.35532851	          0.39939303	          0.91251172	         18.61024041	         14.21889186	        -23.17857638	        -14.97471929	         13.77296924	         11.07444769	         -5.84363067	          0.38878386	          0.89384633	          0.37765599	          0.93280976	          0.27773605	          0.34954171	          0.82519847	          0.69317423	          0.15058373	          0.07546202	          0.17348785	          0.95083023	          0.18104714	          0.99088646	          0.98224166	          0.16015646	          0.24031549	          0.77583240	
          0.31200000	         -8.39904218	          0.39948671	          0.91246908	         18.55843759	         14.35281866	        -22.98706971	        -15.14656612	         13.78318129	         11.08697888	         -5.79032979	          0.37624376	          0.86501979	          0.36547386	          0.90272795	          0.26877757	          0.33826628	          0.79857982	          0.67081421	          0.14572695	          0.07302869	          0.16789171	          0.95661465	          0.17520702	          0.99195699	          0.98433076	          0.15499030	          0.32968903	          0.75080588	
          0.31400000	         -8.44298121	          0.39957857	          0.91242099	         18.49755945	         14.49447262	        -22.77866939	        -15.33303237	         13.77410877	         11.10675262	         -5.73680922	          0.36410794	          0.83712003	          0.35368472	          0.87361130	          0.26010812	          0.32735457	          0.77281971	          0.64917543	          0.14102689	          0.07067423	          0.16247610	          0.96171856	          0.16955528	          0.99290134	          0.98617407	          0.14999080	          0.40854828	          0.72658664	
          0.31600000	         -8.48623014	          0.43610305	          0.91236866	         18.42690209	         14.64246824	        -22.55352299	        -15.53329577	         13.74501940	         11.13330825	         -5.68420669	          0.35236342	          0.81011898	          0.34227589	          0.84543255	          0.25171838	          0.31679486	          0.74789048	          0.62823464	          0.13647849	          0.06839642	          0.15723520	          0.96622200	          0.16408587	          0.99373431	          0.98780052	          0.14515259	          0.47813011	          0.70314866	
          0.31800000	         -8.52782137	          0.44976053	          0.91231342	         18.34579807	         14.79534617	        -22.31221943	        -15.74649503	         13.69914684	         11.16616938	         -5.63372349	          0.34099761	          0.78398825	          0.33123510	          0.81816217	          0.24359933	          0.30657580	          0.72376536	          0.60796933	          0.13207686	          0.06619386	          0.15216336	          0.97019563	          0.15879289	          0.99446892	          0.98923562	          0.14047047	          0.53952591	          0.68046672	
          0.32000000	         -8.56656589	          0.46123766	          0.91225698	         18.25342897	         14.95138162	        -22.05577414	        -15.97171041	         13.64111224	         11.20482639	         -5.58683694	          0.32999833	          0.75870000	          0.32055048	          0.79177112	          0.23574226	          0.29668639	          0.70041841	          0.58835770	          0.12781729	          0.06407309	          0.14725515	          0.97370177	          0.15367065	          0.99511661	          0.99050188	          0.13593940	          0.59369873	          0.65851646	
          0.32200000	         -8.60121561	          0.47209214	          0.91220121	         18.14902458	         15.10878560	        -21.78561606	        -16.20801524	         13.57553484	         11.24874418	         -5.54509782	          0.31935378	          0.73422722	          0.31021055	          0.76623116	          0.22813875	          0.28711600	          0.67782455	          0.56937868	          0.12369520	          0.17416876	          0.14250527	          0.97679542	          0.14871365	          0.99568738	          0.99161916	          0.13155452	          0.64149831	          0.63727426	
          0.32400000	         -8.63152903	          0.48250494	          0.91214651	         18.03316760	         15.26696300	        -21.50395498	        -16.45472184	         13.50687609	         11.29743381	         -5.50877820	          0.30905253	          0.71054366	          0.30020419	          0.74151489	          0.22078063	          0.27785434	          0.65595948	          0.55101187	          0.11970620	          0.27132108	          0.13790863	          0.97952511	          0.14391655	          0.99618980	          0.99260499	          0.12731111	          0.68367443	          0.61671729	
          0.32600000	         -8.65780759	          0.49217073	          0.91209253	         17.90713776	         15.42595643	        -21.21311137	        -16.71125356	         13.43884929	         11.35039379	         -5.47745875	          0.29908353	          0.68762392	          0.29052065	          0.71759579	          0.21366003	          0.26889146	          0.63479972	          0.53323751	          0.11584602	          0.35704521	          0.13346029	          0.98193365	          0.13927421	          0.99663095	          0.99347483	          0.12320461	          0.72088868	          0.59682344	
          0.32800000	         -8.68024211	          0.50057445	          0.91203923	         17.77206284	         15.58566982	        -20.91504518	        -16.97698312	         13.37371938	         11.40706442	         -5.45085888	          0.28943607	          0.66544339	          0.28114953	          0.69444817	          0.20676933	          0.26021773	          0.61432251	          0.51603650	          0.11211057	          0.43268480	          0.12915546	          0.98405883	          0.13478162	          0.99701536	          0.99424233	          0.11923060	          0.75372479	          0.57757133	
          0.33000000	         -8.69889942	          0.50728833	          0.91198686	         17.62889976	         15.74585450	        -20.61139867	        -17.25123584	         13.31242998	         11.46684297	         -5.42885714	          0.28009978	          0.64397825	          0.27208076	          0.67204717	          0.20010123	          0.25182383	          0.59450583	          0.49939035	          0.10849592	          0.49942592	          0.12498951	          0.98593398	          0.13043396	          0.99734073	          0.99491952	          0.11538481	          0.78269785	          0.55894025	
          0.33200000	         -8.71368912	          0.51231285	          0.91193600	         17.47839476	         15.90606812	        -20.30356869	        -17.53328182	         13.25502705	         11.52909680	         -5.41153111	          0.27106463	          0.62320546	          0.26330461	          0.65036873	          0.19364872	          0.24370073	          0.57532839	          0.48328115	          0.10499835	          0.55831526	          0.12095796	          0.98758852	          0.12622655	          0.99754655	          0.99551704	          0.11166312	          0.80826231	          0.54091018	
          0.33400000	         -8.72450628	          0.51597440	          0.91188736	         17.32125852	         16.06584952	        -19.99282580	        -17.82237896	         13.20106327	         11.59318121	         -5.39898439	          0.26232090	          0.60310268	          0.25481162	          0.62938955	          0.18740532	          0.23583971	          0.55676956	          0.46769160	          0.10161451	          0.61027646	          0.11705650	          0.98904840	          0.12215487	          0.96542341	          0.99604423	          0.10806153	          0.83081920	          0.52346172	
          0.33600000	         -8.73119037	          0.51865823	          0.91184177	         17.15811538	         16.22466613	        -19.68037064	        -18.11775964	         13.14990867	         11.65844787	         -5.39139231	          0.25385921	          0.58364833	          0.24659268	          0.60908708	          0.18136569	          0.22823235	          0.53880939	          0.45260492	          0.09834206	          0.65612450	          0.11328091	          0.99033650	          0.11821454	          0.93429604	          0.99650939	          0.10457617	          0.85072235	          0.50657612	
